<svg width="19" height="8" viewBox="0 0 19 8" fill="none" xmlns="http://www.w3.org/2000/svg">
<path d="M18.3536 3.64645C18.5488 3.84171 18.5488 4.15829 18.3536 4.35355L15.1716 7.53553C14.9763 7.7308 14.6597 7.7308 14.4645 7.53553C14.2692 7.34027 14.2692 7.02369 14.4645 6.82843L17.2929 4L14.4645 1.17157C14.2692 0.976311 14.2692 0.659728 14.4645 0.464466C14.6597 0.269204 14.9763 0.269204 15.1716 0.464466L18.3536 3.64645ZM1 4.5C0.723858 4.5 0.5 4.27614 0.5 4C0.5 3.72386 0.723858 3.5 1 3.5V4.5ZM18 4V4.5H1V4V3.5H18V4Z" fill="black"/>
</svg>
