<svg width="62" height="48" viewBox="0 0 62 48" fill="none" xmlns="http://www.w3.org/2000/svg">
<rect width="62" height="47.3131" fill="#00AE4D"/>
<g clip-path="url(#clip0_187_1627)">
<path d="M35.8108 21.3579V16.0243H39.011C40.4799 16.0243 41.6865 17.2309 41.6865 18.6998C41.6865 20.1687 40.4799 21.3404 39.011 21.3404H35.8108V21.3579ZM25.9307 26.4816C24.8465 27.5657 23.3776 28.2128 21.7513 28.2128C18.5162 28.2128 15.8582 25.5722 15.8582 22.3196C15.8582 19.0845 18.4987 16.4265 21.7513 16.4265C23.3776 16.4265 24.864 17.0735 25.9307 18.1577L29.9177 14.1707V30.4511L25.9307 26.4816ZM29.9177 33.7736H35.8108V26.4816H37.5421L41.7914 33.7736H48.5939L43.4352 25.3799C45.8834 24.1033 47.5796 21.5502 47.5796 18.5774C47.5796 14.3281 44.1172 10.9006 39.9028 10.9006H29.9352V13.8734C27.7843 11.8449 24.9339 10.5684 21.7688 10.5684C15.2986 10.5684 10 15.797 10 22.3371C10 28.8773 15.2986 34.1059 21.7688 34.1059C24.9339 34.1059 27.7843 32.8293 29.9352 30.8008V33.7736H29.9177Z" fill="white"/>
<path d="M60.782 18.8604C59.9601 19.9271 58.6836 20.5742 57.2496 20.5742C54.8015 20.5742 52.7905 18.5806 52.7905 16.115C52.7905 13.6668 54.8015 11.6733 57.2496 11.6733C58.7011 11.6733 59.9601 12.3378 60.782 13.4045L61.4116 12.7924C60.4323 11.6033 58.9109 10.8164 57.2496 10.8164C54.3293 10.8164 51.9336 13.2121 51.9336 16.115C51.9336 19.0353 54.3293 21.431 57.2496 21.431C58.9284 21.431 60.4148 20.6616 61.3766 19.4375L60.782 18.8604Z" fill="black"/>
</g>
<defs>
<clipPath id="clip0_187_1627">
<rect width="42" height="26.1767" fill="white" transform="translate(10 10.5684)"/>
</clipPath>
</defs>
</svg>
