<svg preserveAspectRatio="none" width="100%" height="100%" overflow="visible" style="display: block;" viewBox="0 0 104.887 26.1287" fill="none" xmlns="http://www.w3.org/2000/svg">
<g id="Page-1">
<g id="Group-3">
<path id="Fill-1" d="M25.8108 10.7895V5.45595H29.011C30.4799 5.45595 31.6865 6.66256 31.6865 8.13147C31.6865 9.60038 30.4799 10.772 29.011 10.772H25.8108V10.7895ZM15.9307 15.9132C14.8465 16.9974 13.3776 17.6444 11.7513 17.6444C8.51618 17.6444 5.85815 15.0039 5.85815 11.7513C5.85815 8.51618 8.49869 5.85815 11.7513 5.85815C13.3776 5.85815 14.864 6.50517 15.9307 7.58937L19.9177 3.60233V19.8827L15.9307 15.9132ZM19.9177 23.2053H25.8108V15.9132H27.5421L31.7914 23.2053H38.5939L33.4352 14.8115C35.8834 13.535 37.5796 10.9818 37.5796 8.00905C37.5796 3.75971 34.1172 0.332252 29.9028 0.332252H19.9352V3.30505C17.7843 1.27655 14.9339 0 11.7688 0C5.29857 0 0 5.22862 0 11.7688C0 18.3089 5.29857 23.5375 11.7688 23.5375C14.9339 23.5375 17.7843 22.261 19.9352 20.2325V23.2053H19.9177Z" fill="var(--fill-0, white)"/>
</g>
<path id="Fill-4" d="M102.054 10.7925V6.56063C102.212 4.9868 103.541 4.19988 104.887 4.37475V3.57036C103.698 3.39549 102.597 3.99004 102.054 5.03926L102.037 3.62281H101.268V10.7925H102.054Z" fill="var(--fill-0, black)"/>
<path id="Fill-6" d="M94.2028 6.6838C94.4127 5.23237 95.4969 4.27059 96.8084 4.27059C98.1199 4.27059 99.2041 5.23237 99.309 6.6838H94.2028ZM100.113 6.89364C100.113 4.90012 98.6445 3.55362 96.8259 3.55362C94.9548 3.55362 93.3984 5.02253 93.3984 7.17343C93.3984 9.28936 95.0422 10.8632 96.9658 10.8632C98.1199 10.8632 99.0992 10.391 99.7812 9.49921L99.2216 9.04454C98.697 9.76151 97.9101 10.1287 96.9483 10.1287C95.4794 10.1287 94.2728 8.9746 94.1679 7.40076H100.096V6.89364H100.113Z" fill="var(--fill-0, black)"/>
<path id="Fill-8" d="M82.328 7.13849C82.363 5.24989 83.3073 4.25313 84.6363 4.25313C85.7555 4.25313 86.5074 4.9701 86.4899 6.24665V10.7758H87.2594V7.13849C87.2943 5.24989 88.2386 4.25313 89.5676 4.25313C90.6868 4.25313 91.4388 4.9701 91.4213 6.24665V10.7758H92.1907V6.22916C92.2082 4.55041 91.2639 3.53616 89.6551 3.53616C88.5009 3.53616 87.5392 4.21816 87.1195 5.23241C86.8047 4.1657 85.9478 3.53616 84.7237 3.53616C83.657 3.53616 82.7302 4.14821 82.328 5.04005V3.60611H81.5586V10.7758H82.328V7.13849Z" fill="var(--fill-0, black)"/>
<path id="Fill-10" d="M79.3206 10.7937H80.09V3.62405H79.3206V7.26135C79.2856 9.14995 78.2539 10.1467 76.8025 10.1467C75.6483 10.1467 74.8964 9.42975 74.8964 8.15319V3.62405H74.127V8.17068C74.127 9.84944 75.0887 10.8637 76.715 10.8637C77.8867 10.8637 78.9009 10.2167 79.3206 9.28985V10.7937Z" fill="var(--fill-0, black)"/>
<path id="Fill-12" d="M68.2516 9.27209L67.8145 9.88413C68.479 10.4787 69.3708 10.8634 70.5075 10.8634C71.854 10.8634 72.9207 10.129 72.9207 8.8524C72.9207 7.83815 72.431 7.40098 70.8397 6.85888L70.2277 6.64903C69.3358 6.35175 68.8462 6.05448 68.8462 5.38997C68.8462 4.56808 69.6156 4.25331 70.3151 4.25331C70.9796 4.25331 71.6966 4.60305 72.2212 5.0752L72.6758 4.42818C72.0113 3.88608 71.2769 3.57132 70.2976 3.57132C69.0735 3.57132 68.0768 4.23582 68.0768 5.44243C68.0768 6.36924 68.6363 6.94631 69.9828 7.43595L70.6648 7.68077C71.6791 8.03051 72.1337 8.24035 72.1337 8.86989C72.1337 9.7967 71.3293 10.1989 70.4725 10.1989C69.6156 10.1814 68.8287 9.7967 68.2516 9.27209Z" fill="var(--fill-0, black)"/>
<path id="Fill-14" d="M61.5194 7.13849C61.5544 5.24989 62.5861 4.25313 64.0376 4.25313C65.1917 4.25313 65.9436 4.9701 65.9436 6.24665V10.7758H66.7131V6.22916C66.7131 4.55041 65.7513 3.53616 64.125 3.53616C62.9534 3.53616 61.9391 4.18318 61.5194 5.11V3.60611H60.75V10.7758H61.5194V7.13849Z" fill="var(--fill-0, black)"/>
<path id="Fill-16" d="M55.9049 10.0938C54.331 10.0938 53.037 8.79973 53.037 7.20841C53.037 5.63457 54.3136 4.32305 55.9049 4.32305C57.4962 4.32305 58.7902 5.61709 58.7902 7.20841C58.7902 8.78224 57.4962 10.0938 55.9049 10.0938ZM55.9049 3.55362C53.8939 3.55362 52.2676 5.1974 52.2676 7.20841C52.2676 9.21941 53.8939 10.8632 55.9049 10.8632C57.9159 10.8632 59.5597 9.21941 59.5597 7.20841C59.5597 5.1974 57.9159 3.55362 55.9049 3.55362Z" fill="var(--fill-0, black)"/>
<path id="Fill-18" d="M50.782 8.29211C49.9601 9.35882 48.6836 10.0058 47.2496 10.0058C44.8015 10.0058 42.7905 8.01232 42.7905 5.54665C42.7905 3.09846 44.8015 1.10494 47.2496 1.10494C48.7011 1.10494 49.9601 1.76945 50.782 2.83616L51.4116 2.22411C50.4323 1.03499 48.9109 0.248077 47.2496 0.248077C44.3293 0.248077 41.9336 2.6438 41.9336 5.54665C41.9336 8.46698 44.3293 10.8627 47.2496 10.8627C48.9284 10.8627 50.4148 10.0933 51.3766 8.86918L50.782 8.29211Z" fill="var(--fill-0, black)"/>
<path id="Fill-20" d="M84.0251 21.6872L83.5879 22.2992C84.2524 22.8938 85.1442 23.2785 86.2809 23.2785C87.6274 23.2785 88.6941 22.5441 88.6941 21.2675C88.6941 20.2533 88.2045 19.8161 86.6131 19.274L86.0011 19.0641C85.1093 18.7669 84.6196 18.4696 84.6196 17.8051C84.6196 16.9832 85.3891 16.6684 86.0885 16.6684C86.753 16.6684 87.47 17.0181 87.9946 17.4903L88.4493 16.8433C87.7848 16.3012 87.0503 15.9864 86.071 15.9864C84.847 15.9864 83.8502 16.6509 83.8502 17.8575C83.8502 18.7843 84.4098 19.3614 85.7563 19.851L86.4383 20.0959C87.4525 20.4456 87.9072 20.6555 87.9072 21.285C87.9072 22.2118 87.1028 22.614 86.2459 22.614C85.3891 22.5965 84.6021 22.2293 84.0251 21.6872Z" fill="var(--fill-0, black)"/>
<path id="Fill-22" d="M82.6603 22.8063L82.4505 22.1768C82.0308 22.4391 81.6111 22.544 81.1215 22.544C80.422 22.544 80.0897 22.1243 80.0897 21.3724V16.7558H82.6079V16.0214H80.1072V13.5557H79.3203V21.3724C79.3203 22.544 79.8974 23.261 81.104 23.261C81.6636 23.2785 82.1882 23.1211 82.6603 22.8063Z" fill="var(--fill-0, black)"/>
<path id="Fill-24" d="M75.3689 23.2086V18.9767C75.5263 17.4029 76.8553 16.616 78.2018 16.7908V15.9864C77.0127 15.8116 75.911 16.4061 75.3689 17.4553L75.3515 16.0389H74.582V23.2086H75.3689Z" fill="var(--fill-0, black)"/>
<path id="Fill-26" d="M69.7564 22.5089C68.1826 22.5089 66.8886 21.2149 66.8886 19.6236C66.8886 18.0497 68.1651 16.7382 69.7564 16.7382C71.3478 16.7382 72.6418 18.0322 72.6418 19.6236C72.6418 21.2149 71.3478 22.5089 69.7564 22.5089ZM69.7564 15.9688C67.7454 15.9688 66.1191 17.6126 66.1191 19.6236C66.1191 21.6346 67.7454 23.2784 69.7564 23.2784C71.7674 23.2784 73.4112 21.6346 73.4112 19.6236C73.4112 17.6126 71.7674 15.9688 69.7564 15.9688Z" fill="var(--fill-0, black)"/>
<path id="Fill-28" d="M61.4851 22.5089C59.9113 22.5089 58.6522 21.2149 58.6522 19.6236C58.6522 18.0497 59.9288 16.7382 61.4851 16.7382C63.059 16.7382 64.318 18.0322 64.318 19.6236C64.318 21.2149 63.059 22.5089 61.4851 22.5089ZM61.4851 15.9688C60.296 15.9688 59.2468 16.6333 58.6522 17.63V16.0562H57.8828V26.1287H58.6522V21.6171C59.2643 22.6313 60.331 23.2958 61.5376 23.2958C63.4961 23.2958 65.105 21.6521 65.105 19.6411C65.105 17.63 63.4787 15.9688 61.4851 15.9688Z" fill="var(--fill-0, black)"/>
<path id="Fill-30" d="M50.7829 19.099C50.9928 17.6475 52.077 16.6857 53.3885 16.6857C54.7 16.6857 55.7842 17.6475 55.8891 19.099H50.7829ZM56.6935 19.3088C56.6935 17.3153 55.2246 15.9688 53.406 15.9688C51.5349 15.9688 49.9785 17.4377 49.9785 19.5886C49.9785 21.7045 51.6223 23.2784 53.5459 23.2784C54.7 23.2784 55.6793 22.8062 56.3613 21.9144L55.8017 21.4597C55.2771 22.1767 54.4902 22.5439 53.5284 22.5439C52.0595 22.5439 50.8529 21.3898 50.7479 19.8159H56.676V19.3088H56.6935Z" fill="var(--fill-0, black)"/>
<path id="Fill-32" d="M43.4548 18.1372V13.5381H46.1128C47.7566 13.5381 48.7009 14.4649 48.7009 15.8289C48.7009 17.053 47.8615 18.1197 46.0778 18.1197H43.4548V18.1372ZM46.7598 18.8717C48.526 18.6094 49.5578 17.3328 49.5578 15.8464C49.5578 14.0627 48.3512 12.7687 46.1478 12.7687H42.6504V23.2085H43.4723V18.9067H45.7981L48.7534 23.2085H49.7501L46.7598 18.8717Z" fill="var(--fill-0, black)"/>
</g>
</svg>
