<svg width="62" height="45" viewBox="0 0 62 45" fill="none" xmlns="http://www.w3.org/2000/svg">
<rect width="62" height="44.1063" fill="#FFE500"/>
<path d="M51.934 20.7352C50.7552 19.7352 48.6698 19.9397 45.7456 22.0306C48.6698 24.1215 50.7552 24.3261 51.934 23.3261C52.2966 23.0079 52.5233 22.5534 52.5233 22.0306C52.5233 21.5306 52.2966 21.0534 51.934 20.7352Z" fill="black"/>
<path d="M10.0662 20.7346C9.70349 21.0528 9.47681 21.5301 9.47681 22.0528C9.47681 22.5755 9.70349 23.0301 10.0662 23.3483C11.2449 24.3483 13.3304 24.1437 16.2545 22.0528C13.353 19.9619 11.2449 19.7574 10.0662 20.7346Z" fill="black"/>
<path d="M45.5416 23.0074C43.6829 22.3483 42.1188 24.6438 38.6279 26.3256C36.7011 27.2347 34.2303 27.9619 31.0115 27.9847C27.7926 27.9619 25.2992 27.2574 23.395 26.3256C19.8588 24.6438 18.3174 22.3483 16.4587 23.0074C15.0986 23.4847 14.4185 25.2574 14.2599 26.4392C14.0332 28.2801 14.9626 29.6665 15.2572 30.121C17.2067 33.0074 21.7176 34.3029 25.4805 33.0756C28.8127 31.9847 30.5128 29.2347 31.0115 28.3483C31.5102 29.2347 33.1876 31.9847 36.5425 33.0756C40.2827 34.3029 44.8163 33.0074 46.7657 30.121C47.0604 29.6665 48.0124 28.2801 47.7631 26.4392C47.5817 25.2574 46.9017 23.4847 45.5416 23.0074Z" fill="black"/>
<path d="M16.4585 21.0987C18.3173 21.7578 19.8813 19.4624 23.3722 17.7806C24.8003 17.0987 26.5684 16.5306 28.6992 16.2578C26.7271 17.1442 25.367 19.1215 25.367 21.4169C25.367 24.5306 27.8831 27.0533 30.9886 27.0533C34.0942 27.0533 36.6103 24.5306 36.6103 21.4169C36.6103 19.1215 35.2502 17.1442 33.2781 16.2578C35.4316 16.5078 37.177 17.076 38.6051 17.7806C42.1186 19.4624 43.66 21.7578 45.5188 21.0987C46.8789 20.6215 47.5589 18.8487 47.7176 17.6669C47.9443 15.826 47.0149 14.4396 46.7202 13.9851C44.7708 11.0987 40.2598 9.80328 36.497 11.0306C33.1874 12.1442 31.51 14.8942 31.0113 15.7806C30.5126 14.8942 28.8352 12.1442 25.4803 11.0533C21.7175 9.82601 17.2065 11.1215 15.2571 14.0078C14.9624 14.4624 14.0103 15.8487 14.2597 17.6896C14.4184 18.8487 15.0984 20.6215 16.4585 21.0987Z" fill="black"/>
</svg>
