<svg preserveAspectRatio="none" width="100%" height="100%" overflow="visible" style="display: block;" viewBox="0 0 43.0465 22.9699" fill="none" xmlns="http://www.w3.org/2000/svg">
<g id="Group 1">
<path id="Vector" d="M42.4571 10.1667C41.2783 9.16675 39.1929 9.37129 36.2687 11.4622C39.1929 13.5531 41.2783 13.7577 42.4571 12.7577C42.8198 12.4395 43.0464 11.9849 43.0464 11.4622C43.0464 10.9622 42.8198 10.4849 42.4571 10.1667Z" fill="var(--fill-0, black)"/>
<path id="Vector_2" d="M0.589367 10.1667C0.226679 10.4849 0 10.9622 0 11.4849C0 12.0077 0.226679 12.4622 0.589367 12.7804C1.7681 13.7804 3.85355 13.5758 6.77772 11.4849C3.87622 9.39402 1.7681 9.18947 0.589367 10.1667Z" fill="var(--fill-0, black)"/>
<path id="Vector_3" d="M36.0647 12.4395C34.2059 11.7804 32.6418 14.0758 29.151 15.7577C27.2242 16.6667 24.7534 17.394 21.5346 17.4167C18.3157 17.394 15.8222 16.6895 13.9181 15.7577C10.3819 14.0758 8.8405 11.7804 6.98173 12.4395C5.62165 12.9167 4.94161 14.6895 4.78294 15.8713C4.55626 17.7122 5.48564 19.0986 5.78033 19.5531C7.72977 22.4395 12.2407 23.7349 16.0036 22.5077C19.3358 21.4167 21.0359 18.6667 21.5346 17.7804C22.0332 18.6667 23.7107 21.4167 27.0655 22.5077C30.8057 23.7349 35.3393 22.4395 37.2888 19.5531C37.5835 19.0986 38.5355 17.7122 38.2862 15.8713C38.1048 14.6895 37.4248 12.9167 36.0647 12.4395Z" fill="var(--fill-0, black)"/>
<path id="Vector_4" d="M6.98173 10.5304C8.8405 11.1895 10.4046 8.89402 13.8955 7.2122C15.3235 6.53038 17.0916 5.9622 19.2224 5.68947C17.2503 6.57584 15.8902 8.55311 15.8902 10.8486C15.8902 13.9622 18.4064 16.4849 21.5119 16.4849C24.6174 16.4849 27.1335 13.9622 27.1335 10.8486C27.1335 8.55311 25.7735 6.57584 23.8013 5.68947C25.9548 5.93947 27.7002 6.50766 29.1283 7.2122C32.6418 8.89402 34.1833 11.1895 36.042 10.5304C37.4021 10.0531 38.0822 8.28038 38.2408 7.09856C38.4675 5.25766 37.5381 3.87129 37.2434 3.41675C35.294 0.530383 30.7831 -0.765071 27.0202 0.462201C23.7107 1.57584 22.0332 4.32584 21.5345 5.2122C21.0359 4.32584 19.3584 1.57584 16.0036 0.484929C12.2407 -0.742344 7.72977 0.553111 5.78033 3.43947C5.48564 3.89402 4.53359 5.28038 4.78294 7.12129C4.94161 8.28038 5.62165 10.0531 6.98173 10.5304Z" fill="var(--fill-0, black)"/>
</g>
</svg>
