<svg width="62" height="47.8468" overflow="visible" style="display: block;" viewBox="0 0 62 47.8468" fill="none" xmlns="http://www.w3.org/2000/svg">
<g id="Frame 1171276966">
<rect width="62" height="47.8468" fill="#262D6D"/>
<path id="Meta_Platforms_Inc._logo 2 (Traced)" fill-rule="evenodd" clip-rule="evenodd" d="M21.1319 10.634C18.0987 11.2028 15.2458 13.6937 13.3186 17.4558C12.336 19.3739 11.5915 21.6793 11.1773 24.0857C10.8709 25.8664 10.793 29.1218 11.0249 30.4519C11.8226 35.0277 14.5273 37.4502 18.6362 37.2691C20.8436 37.172 22.4246 36.2758 24.2607 34.0812C25.7114 32.3473 26.9606 30.3817 29.6744 25.5627L31.0009 23.2072L33.4541 27.286C36.2697 31.9672 37.3377 33.5014 38.7952 34.9589C40.4655 36.6292 41.6408 37.18 43.7238 37.2684C46.6725 37.3936 48.6867 36.2527 49.9179 33.7598C50.9026 31.7662 51.2469 29.575 51.062 26.4784C50.7718 21.6183 49.2968 17.4653 46.7283 14.2762C44.0838 10.9928 40.1987 9.73312 37.0334 11.133C35.5845 11.7738 33.7943 13.2961 32.3247 15.1373L31.5253 16.1388L31.0157 15.5071C30.2638 14.5751 28.7438 13.0773 27.9164 12.4529C27.0743 11.8175 25.5971 11.0656 24.7055 10.8186C24.0986 10.6506 21.7033 10.5269 21.1319 10.634ZM41.483 14.545C44.2389 15.9071 46.3222 19.8311 47.0428 25.018C47.2206 26.2975 47.22 29.4085 47.0418 30.1877C46.6245 32.0127 45.7641 32.8387 44.2482 32.8689C42.3493 32.9068 41.4945 31.8889 36.4806 23.6196C35.4271 21.8821 34.3377 20.1223 34.0599 19.709C33.4773 18.8425 33.4509 18.9937 34.4217 17.6278C35.2067 16.5231 36.2958 15.3692 37.0312 14.8626C37.9239 14.2479 38.5207 14.0801 39.6844 14.1168C40.598 14.1456 40.7462 14.1809 41.483 14.545ZM24.5077 15.4829C25.1657 15.8078 25.533 16.093 26.3733 16.9309C26.9488 17.5049 27.7576 18.4277 28.1705 18.9815L28.9214 19.9885L27.6298 21.9853C26.9195 23.0836 25.7417 24.9144 25.0125 26.0538C23.3242 28.6916 22.4243 29.9829 21.5376 31.0398C20.2982 32.5172 19.0993 33.1016 17.8263 32.8487C15.9003 32.4662 15.0287 30.3241 15.3225 26.6952C15.7659 21.2197 18.1212 16.4793 21.0004 15.2673C21.5242 15.0468 21.7272 15.0197 22.6433 15.047C23.619 15.0762 23.743 15.1051 24.5077 15.4829Z" fill="var(--fill-0, white)"/>
</g>
</svg>
