<svg width="184" height="17" viewBox="0 0 184 17" fill="none" xmlns="http://www.w3.org/2000/svg">
<rect width="184" height="17" fill="#767171"/>
<g id="Recognized and awarded ">
<rect width="1440" height="2856" transform="translate(-968.188 -2111.99)" fill="white"/>
<rect width="1440" height="2856" transform="translate(-968.188 -2111.99)" fill="#E5E5DE"/>
<g id="Frame 2147236516">
<mask id="path-1-inside-1_80_2" fill="white">
<path d="M-473.188 -137.992H419.812V42.6659H-473.188V-137.992Z"/>
</mask>
<path d="M-473.188 -137.992H419.812V42.6659H-473.188V-137.992Z" fill="#EBEBE4"/>
<path d="M-473.188 42.6659H-469.188V-137.992H-473.188H-477.188V42.6659H-473.188Z" fill="#FF0000" mask="url(#path-1-inside-1_80_2)"/>
<g id="Frame 2147236476">
<g id="Frame 2147236481">
<g id="Frame 2147236477">
<g id="g13742">
<path id="path13688" d="M9.37621 0.428349H9.07551C9.0601 0.783034 8.87411 0.936518 8.52511 0.936518C7.82424 0.936518 6.69074 0.0744963 5.48868 0.0744963C2.0686 0.0744963 0 3.49039 0 6.49959C0 9.52839 1.96932 12.5211 5.2709 12.5211C7.27383 12.5211 8.02486 11.5583 8.55791 11.5583C8.90876 11.5583 9.10925 11.9991 9.17574 12.2512H9.42645V8.1063H9.17574L9.07551 8.68199C8.84131 10.0532 7.59108 12.2171 5.43966 12.2171C3.53683 12.2171 2.80419 10.4071 2.80419 6.2963C2.80419 1.98526 3.80381 0.377503 5.48877 0.377503C7.39058 0.377503 8.80852 2.6938 9.07551 4.42076H9.37634L9.37621 0.428349Z" fill="#3A3A3A"/>
<path id="path13690" d="M18.4731 10.8146H18.1772C18.1772 11.2497 17.996 11.75 17.6008 11.75C17.3048 11.75 17.2238 11.4334 17.2238 10.9164V7.07732C17.2238 5.17542 15.4618 4.70726 13.7672 4.70726C12.1218 4.70726 10.9197 5.52624 10.9197 6.45964C10.9197 7.04512 11.2485 7.54453 11.9888 7.54453C12.6144 7.54453 12.9932 7.12816 12.9932 6.54268C12.9932 5.74328 12.1719 5.79215 12.1535 5.50863C12.1391 5.14123 13.0924 5.00922 13.6525 5.00922C14.8854 5.00922 15.0511 5.62398 15.0511 6.62677V8.02728L13.4375 8.16117C11.9415 8.27849 10.3115 8.67924 10.3115 10.414C10.3115 11.8664 11.5945 12.4518 12.8621 12.4518C13.5031 12.4518 14.6386 12.1996 15.0675 11.4001C15.3635 12.0999 15.9727 12.4518 16.712 12.4518C17.7821 12.4518 18.4731 11.7998 18.4731 10.8146ZM15.0511 10.2654C15.0183 11.1501 14.5229 11.9494 13.7509 11.9494C12.6317 11.9494 12.5834 10.9164 12.5834 10.0485C12.5834 9.16199 12.6809 8.57859 13.7509 8.4622L15.0511 8.3283V10.2654Z" fill="#3A3A3A"/>
<path id="path13692" d="M18.5664 12.2526H23.4883V11.9515H21.9739V7.69322C21.9739 6.409 22.3692 5.50781 23.4063 5.03965H23.4719C23.1924 5.33974 23.0768 5.60564 23.0768 6.02295C23.0768 6.67481 23.5539 7.10869 24.1959 7.10869C24.9862 7.10869 25.4471 6.52727 25.4471 5.89094C25.4471 5.08862 24.9197 4.60484 24.1466 4.60484C23.0931 4.60484 22.2862 5.33973 21.9739 6.17445H21.9412V4.47188C21.5952 4.90481 20.3777 4.90481 19.7029 4.90481H18.5664V5.20386H19.703V11.9515H18.5664V12.2526Z" fill="#3A3A3A"/>
<path id="path13694" d="M25.7051 12.2526H30.0814V11.9515H29.1107V7.37657C29.1107 6.52727 29.9338 5.3065 30.8545 5.3065C31.3317 5.3065 31.8271 5.5079 31.8271 6.6748V11.9515H30.8882V12.2526H35.2318V11.9515H34.0962V7.29353C34.0962 5.4903 33.3395 4.70548 31.776 4.70548C30.6752 4.70548 29.5878 5.28899 29.1435 6.25646H29.1107V4.47188C28.7647 4.90481 27.5491 4.90481 26.8734 4.90481H25.7051V5.20386H26.8406V11.9515H25.7051V12.2526Z" fill="#3A3A3A"/>
<path id="path13696" d="M37.6278 8.21306H42.1708C42.1544 6.41077 40.5081 4.67599 38.7798 4.70725C36.8393 4.70725 35.1582 6.41087 35.1582 8.66256C35.1582 10.8324 36.7217 12.4518 38.8299 12.4518C40.8541 12.4518 41.8585 11.1823 42.22 9.52948H41.9241C41.5627 11.0825 40.6073 12.0501 39.3234 12.0501C37.7927 12.0501 37.6277 10.7483 37.6277 9.61451L37.6278 8.21306ZM37.6278 7.91099V6.47724C37.6278 5.35817 38.1059 5.00932 38.665 5.00932C39.4535 5.00932 39.7022 5.55843 39.7022 6.47724V7.91099H37.6278Z" fill="#3A3A3A"/>
<path id="path13698" d="M50.3453 5.46334C50.3453 4.87785 49.7207 4.57882 49.2262 4.57882C48.6844 4.57882 48.2728 4.94631 47.9586 5.31277C47.4805 4.96288 46.824 4.71073 45.9025 4.71073C44.5203 4.71073 43.0377 5.6285 43.0377 7.14831C43.0377 8.06504 43.5322 8.78243 44.4045 9.18317V9.21537C43.7626 9.29841 42.7582 9.74989 42.7582 11.1349C42.7582 11.9675 43.137 12.6028 43.8282 12.8041V12.8364C43.1698 13.0181 42.4131 13.6856 42.4131 14.4871C42.4131 15.7215 43.8455 16.6735 45.6722 16.6735C47.9587 16.6735 49.4575 15.1048 49.4575 13.0699C49.4575 11.4505 48.6672 10.7175 47.0545 10.7507H44.3216C43.9101 10.7507 43.3511 10.734 43.3511 10.2845C43.3511 9.86617 44.0595 9.41657 44.6841 9.41657C44.8653 9.41657 45.0455 9.46637 45.2278 9.51524C45.4245 9.58266 45.6384 9.61695 45.9025 9.61695C47.3176 9.61695 48.831 8.79796 48.831 7.21364C48.831 6.68005 48.5852 5.93035 48.1245 5.52972C48.4204 5.22963 48.5688 4.86119 49.2107 4.77908V4.81233C48.8647 4.99509 48.7664 5.21202 48.7664 5.54722C48.7664 5.93035 49.0295 6.31453 49.5221 6.31453C50.0503 6.31453 50.3453 5.91295 50.3453 5.46334ZM44.0923 12.853H46.6757C48.3211 12.853 48.8647 13.0025 48.8647 14.0209C48.8647 15.2387 47.3841 16.3724 45.7213 16.3724C44.2397 16.3724 43.4348 15.3551 43.4002 14.5556C43.4002 13.8206 43.6469 13.3368 44.0923 12.853ZM46.9561 7.1482C46.9387 9.19963 46.5108 9.31591 45.9188 9.31591C45.2605 9.31591 44.9145 9.09898 44.9145 7.09642C44.9145 5.74665 45.0629 5.01269 45.9188 5.01269C46.692 5.01269 46.9387 5.22963 46.9561 7.1482Z" fill="#3A3A3A"/>
<path id="path13700" d="M50.6006 12.2526H55.1465V11.9515H54.0099V4.47188C53.6639 4.90481 52.4445 4.90481 51.7707 4.90481H50.6006V5.20386H51.7361V11.9515H50.6006V12.2526Z" fill="#3A3A3A"/>
<path id="path13702" d="M51.6983 2.3249C51.6983 2.98655 52.2198 3.51721 52.8733 3.51721C53.5269 3.51721 54.0485 2.98655 54.0485 2.3249C54.0485 1.66325 53.5269 1.13445 52.8733 1.13445C52.7188 1.13364 52.5658 1.16386 52.4229 1.22339C52.28 1.28292 52.1502 1.37055 52.041 1.48124C51.9317 1.59194 51.8451 1.72349 51.7863 1.86829C51.7275 2.0131 51.6976 2.1683 51.6983 2.3249Z" fill="#3A3A3A"/>
<path id="path13704" d="M57.6161 8.21306H62.1573C62.1428 6.41077 60.4954 4.67599 58.767 4.70725C56.8257 4.70725 55.1455 6.41087 55.1455 8.66256C55.1455 10.8324 56.712 12.4518 58.8162 12.4518C60.8415 12.4518 61.8468 11.1823 62.2073 9.52948H61.9113C61.5499 11.0825 60.5956 12.0501 59.3107 12.0501C57.781 12.0501 57.6161 10.7483 57.6161 9.61451V8.21306ZM57.6161 7.91099V6.47724C57.6161 5.35817 58.0933 5.00932 58.6533 5.00932C59.4428 5.00932 59.6895 5.55843 59.6895 6.47724V7.91099H57.6161Z" fill="#3A3A3A"/>
<path id="path13706" d="M65.0381 12.2526H68.2297V11.9525H67.9994C67.1106 11.9525 66.7655 11.719 66.7655 10.3672V0.909395H66.7992L70.7301 12.2526H71.1755L75.0081 1.10976H75.041V11.9525H73.6249V12.2526H78.8408V11.9525H77.6069V0.808737H78.8408V0.50864H74.876L72.0951 8.56691H72.0623L69.3315 0.50864H65.1201V0.808737H66.3693V10.5188C66.3693 11.2361 66.2054 11.9526 65.1036 11.9526H65.0381V12.2526Z" fill="#3A3A3A"/>
<path id="path13708" d="M81.1454 8.21306H85.6874C85.6719 6.41077 84.0257 4.67599 82.2973 4.70725C80.3559 4.70725 78.6758 6.41087 78.6758 8.66256C78.6758 10.8324 80.2402 12.4518 82.3484 12.4518C84.3707 12.4518 85.377 11.1823 85.7376 9.52948H85.4417C85.0812 11.0825 84.1258 12.0501 82.841 12.0501C81.3092 12.0501 81.1453 10.7483 81.1453 9.61451L81.1454 8.21306ZM81.1454 7.91099V6.47724C81.1454 5.35817 81.6226 5.00932 82.1825 5.00932C82.973 5.00932 83.2197 5.55843 83.2197 6.47724V7.91099H81.1454Z" fill="#3A3A3A"/>
<path id="path13710" d="M85.7314 12.2526H90.2775V11.9525H89.141V0.000490189C88.8441 0.500843 87.938 0.500836 86.7687 0.500836H85.7314V0.801967H86.869V11.9525H85.7314V12.2526Z" fill="#3A3A3A"/>
<path id="path13712" d="M90.5654 12.2526H95.1115V11.9525H93.9758V0.000490189C93.678 0.500843 92.7729 0.500836 91.6037 0.500836H90.5654V0.801967H91.701V11.9525H90.5654V12.2526Z" fill="#3A3A3A"/>
<path id="path13714" d="M102.757 8.57857C102.757 6.29353 101.013 4.70725 98.8403 4.70725C96.6684 4.70725 94.9229 6.29353 94.9229 8.57857C94.9229 10.8656 96.6684 12.4518 98.8403 12.4518C101.013 12.4518 102.757 10.8656 102.757 8.57857ZM100.189 10.3808C100.189 11.6337 99.6798 12.1498 98.8402 12.1498C98.0016 12.1498 97.4908 11.6337 97.4908 10.3808V6.77629C97.4908 5.52624 98.0015 5.00921 98.8402 5.00921C99.6798 5.00921 100.189 5.52623 100.189 6.77638V10.3808Z" fill="#3A3A3A"/>
<path id="path13716" d="M102.768 12.2526H107.145V11.9515H106.175V7.37657C106.175 6.52727 106.998 5.3065 107.92 5.3065C108.396 5.3065 108.891 5.5079 108.891 6.6748V11.9515H107.951V12.2526H112.297V11.9515H111.16V7.29353C111.16 5.4903 110.404 4.70548 108.84 4.70548C107.739 4.70548 106.652 5.28899 106.207 6.25646H106.175V4.47188C105.83 4.90481 104.612 4.90481 103.937 4.90481H102.768V5.20386H103.904V11.9515H102.768V12.2526Z" fill="#3A3A3A"/>
<path id="path13718" d="M114.589 0.807548H115.873V8.36546C115.873 10.9506 117.631 12.5192 120.315 12.5192C123.341 12.5192 124.657 10.8997 124.657 8.44653V2.20909C124.657 1.24152 124.92 0.807643 125.513 0.807643H125.941V0.507562H122.684V0.807643H123.161C124.001 0.807643 124.264 1.24152 124.264 2.20909V8.54916C124.264 10.8156 122.913 11.9171 121.317 11.9171C118.915 11.9171 118.439 10.283 118.439 8.14842V0.807548H119.771V0.507451H114.589V0.807548Z" fill="#3A3A3A"/>
<path id="path13720" d="M125.302 12.2526H129.678V11.9515H128.708V7.37657C128.708 6.52727 129.529 5.3065 130.45 5.3065C130.929 5.3065 131.422 5.5079 131.422 6.6748V11.9515H130.485V12.2526H134.828V11.9515H133.695V7.29353C133.695 5.4903 132.936 4.70548 131.374 4.70548C130.272 4.70548 129.185 5.28899 128.741 6.25646H128.708V4.47188C128.361 4.90481 127.145 4.90481 126.468 4.90481H125.302V5.20386H126.435V11.9515H125.302V12.2526Z" fill="#3A3A3A"/>
<path id="path13722" d="M135.067 12.2526H139.613V11.9515H138.478V4.47188C138.131 4.90481 136.913 4.90481 136.237 4.90481H135.067V5.20386H136.206V11.9515H135.067V12.2526Z" fill="#3A3A3A"/>
<path id="path13724" d="M136.165 2.3249C136.165 2.98655 136.688 3.51721 137.342 3.51721C137.994 3.51721 138.515 2.98655 138.515 2.3249C138.515 1.66325 137.994 1.13445 137.342 1.13445C136.688 1.13445 136.165 1.66325 136.165 2.3249Z" fill="#3A3A3A"/>
<path id="path13726" d="M142.948 12.4518H143.393L145.827 6.6102C146.239 5.67587 146.584 5.22521 146.963 5.20864H147.112V4.90751H144.544V5.20864H144.859C145.335 5.20864 145.614 5.39141 145.614 5.82539C145.614 6.09422 145.533 6.45964 145.335 6.92676L144.216 9.59701L142.29 5.20864H143.278V4.90751H139.147V5.20864H139.855L142.948 12.4518Z" fill="#3A3A3A"/>
<path id="path13728" d="M148.918 8.21306H153.461C153.446 6.41077 151.799 4.67599 150.072 4.70725C148.128 4.70725 146.449 6.41087 146.449 8.66256C146.449 10.8324 148.014 12.4518 150.122 12.4518C152.145 12.4518 153.149 11.1823 153.511 9.52948H153.217C152.853 11.0825 151.899 12.0501 150.615 12.0501C149.084 12.0501 149.032 10.7483 149.032 9.61451L148.918 8.21306ZM148.918 7.91099V6.47724C148.918 5.35817 149.396 5.00932 149.956 5.00932C150.746 5.00932 150.991 5.55843 150.991 6.47724V7.91099H148.918Z" fill="#3A3A3A"/>
<path id="path13730" d="M153.498 12.2526H158.419V11.9515H156.906V7.69322C156.906 6.409 157.301 5.50781 158.338 5.03965H158.404C158.124 5.33974 158.008 5.60564 158.008 6.02295C158.008 6.67481 158.485 7.10869 159.128 7.10869C159.918 7.10869 160.379 6.52727 160.379 5.89094C160.379 5.08862 159.852 4.60484 159.077 4.60484C158.025 4.60484 157.218 5.33973 156.906 6.17445H156.873V4.47188C156.527 4.90481 155.309 4.90481 154.635 4.90481H153.498V5.20386H154.635V11.9515H153.498L153.498 12.2526Z" fill="#3A3A3A"/>
<path id="path13732" d="M160.737 12.4518H161.034C161.117 12.183 161.38 12.0501 161.71 12.0501C162.137 12.0501 162.647 12.4518 163.569 12.4518C165.134 12.4518 166.203 11.0825 166.203 9.71423C166.203 7.67843 164.822 7.52786 163.059 7.27768C162.137 7.14379 161.561 6.99322 161.561 6.25832C161.561 5.47445 162.236 5.00922 163.125 5.00922C164.359 5.00922 165.018 5.99253 165.431 7.07732H165.693L165.594 4.70725H165.347C165.347 4.90762 165.151 5.07476 164.837 5.07476C164.31 5.07476 163.882 4.70725 163.125 4.70725C161.48 4.70725 160.674 6.12735 160.674 7.19464C160.674 9.34776 162.286 9.52948 163.536 9.68005C164.722 9.83155 165.216 9.94679 165.216 10.715C165.216 11.6005 164.493 12.1498 163.602 12.1498C162.352 12.1498 161.331 10.8656 161.034 9.64774H160.737V12.4518Z" fill="#3A3A3A"/>
<path id="path13734" d="M166.493 12.2526H171.037V11.9515H169.903V4.47188C169.557 4.90481 168.338 4.90481 167.663 4.90481H166.493V5.20386H167.631V11.9515H166.493V12.2526Z" fill="#3A3A3A"/>
<path id="path13736" d="M167.593 2.3249C167.593 2.98655 168.112 3.51721 168.766 3.51721C169.421 3.51721 169.942 2.98655 169.942 2.3249C169.942 1.66325 169.42 1.13445 168.766 1.13445C168.112 1.13445 167.593 1.66325 167.593 2.3249Z" fill="#3A3A3A"/>
<path id="path13738" d="M171.689 5.20958V10.5489C171.689 12.1342 173.038 12.4518 173.499 12.4518C174.504 12.4518 175.178 12.0345 175.689 11.1666L175.476 11.0493C175.278 11.3494 175.012 11.7511 174.602 11.7511C174.175 11.7511 173.961 11.4334 173.961 10.8841V5.20958H175.476V4.91053H173.961V1.32273H173.664C173.664 3.09168 172.478 4.91053 170.815 4.91053V5.20958H171.689Z" fill="#3A3A3A"/>
<path id="path13740" d="M175.422 5.20923H176.112L179.271 12.6322L179.174 13.2988C179.107 13.7836 178.777 15.6864 178.235 15.8516V15.8027C178.3 15.5683 178.318 15.3864 178.318 15.2359C178.318 14.668 177.923 14.2341 177.23 14.2341C176.507 14.2341 176.146 14.7355 176.146 15.3688C176.146 16.053 176.771 16.5377 177.493 16.5377C178.795 16.5377 179.123 15.0844 179.271 14.3846L179.716 12.3497L180.572 10.181L182.2 6.45928C182.564 5.61091 182.891 5.20923 183.254 5.20923H183.386V4.90821H180.82V5.20934H181.165C181.69 5.20934 181.922 5.51025 181.922 5.79366C181.922 6.12501 181.707 6.67726 181.445 7.31057L180.49 9.59665L178.564 5.20923H179.651V4.90821H175.422V5.20923Z" fill="#3A3A3A"/>
</g>
</g>
</g>
</g>
</g>
</g>
</svg>
