<svg width="77" height="22" viewBox="0 0 77 22" fill="none" xmlns="http://www.w3.org/2000/svg">
<rect width="77" height="22" fill="#767171"/>
<g id="Recognized and awarded ">
<rect width="1440" height="2856" transform="translate(-601.979 -2109.39)" fill="white"/>
<rect width="1440" height="2856" transform="translate(-601.979 -2109.39)" fill="#E5E5DE"/>
<g id="Frame 2147236516">
<mask id="path-1-inside-1_80_2" fill="white">
<path d="M-106.979 -135.394H786.021V45.2639H-106.979V-135.394Z"/>
</mask>
<path d="M-106.979 -135.394H786.021V45.2639H-106.979V-135.394Z" fill="#EBEBE4"/>
<path d="M-106.979 45.2639H-102.979V-135.394H-106.979H-110.979V45.2639H-106.979Z" fill="#FF0000" mask="url(#path-1-inside-1_80_2)"/>
<g id="Frame 2147236476">
<g id="Frame 2147236481">
<g id="Frame 2147236477">
<g id="Frame 1171277124">
<rect id="Rectangle 350287" x="0.991211" width="74.0612" height="3.10204" fill="#3A3A3A"/>
<g id="Frame 1171277123">
<path id="Heading 2 &#226;&#134;&#146; 10+ years of&#10;building e-com&#10;solutions" d="M6.72453 4.48895L5.51821 12H4.016L5.21094 4.48895H6.72453ZM7.24802 8.97282V10.2929H0.340135V8.97282H7.24802ZM3.89081 4.48895L2.69587 12H1.18228L2.37722 4.48895H3.89081ZM7.73738 6.19601V7.51613H0.829491V6.19601H7.73738ZM16.4111 4.48895V12H13.8619L11.8134 8.27862L11.3354 7.26576H11.3127L11.3582 8.74521V12H9.33249V4.48895H11.8703L13.9188 8.21033L14.4081 9.22319H14.4195L14.374 7.74374V4.48895H16.4111ZM18.3827 12V4.48895H24.4371V6.23015H20.7043V7.44785H23.686V9.06386H20.7043V10.2588H24.585V12H18.3827ZM27.5671 12L25.4162 4.48895H27.9199L28.9783 10.1564L30.1618 4.48895H32.2103L33.4508 10.1222L34.4864 4.48895H36.899L34.7481 12H32.2445L31.5161 8.79073L31.2088 6.91297H31.1747L30.8674 8.79073L30.1391 12H27.5671ZM50.817 4.48895V12H48.7686V8.99558L48.8141 6.57156H48.7913L47.1412 12H45.2748L43.6474 6.57156H43.6133L43.6588 8.99558V12H41.6103V4.48895H44.8879L45.9007 8.05101L46.2763 9.54184H46.299L46.6746 8.05101L47.6874 4.48895H50.817ZM59.8963 12H57.5064L57.0853 10.4409H54.7978L54.3654 12H52.0438L54.5702 4.48895H57.3584L59.8963 12ZM55.1848 8.93868H56.7097L55.9473 6.1391L55.1848 8.93868ZM67.7067 9.76945C67.5702 10.3233 67.3388 10.7747 67.0125 11.1237C66.6939 11.4727 66.3032 11.7269 65.8404 11.8862C65.3851 12.0379 64.8806 12.1138 64.3268 12.1138C63.5529 12.1138 62.8815 11.9621 62.3124 11.6586C61.751 11.3475 61.3185 10.9037 61.0151 10.3271C60.7116 9.75048 60.5599 9.05628 60.5599 8.24448C60.5599 7.43267 60.7116 6.73847 61.0151 6.16187C61.3185 5.58526 61.751 5.14522 62.3124 4.84174C62.8815 4.53068 63.5491 4.37515 64.3154 4.37515C64.8616 4.37515 65.3624 4.45102 65.8176 4.60275C66.2804 4.75449 66.6711 4.98969 66.9898 5.30834C67.3084 5.62699 67.5246 6.04048 67.6385 6.5488L65.6241 7.35681C65.5407 6.87124 65.3927 6.5488 65.1803 6.38947C64.9754 6.23015 64.7099 6.15049 64.3837 6.15049C64.0802 6.15049 63.8184 6.23015 63.5984 6.38947C63.386 6.54121 63.2229 6.77261 63.1091 7.08368C63.0028 7.38715 62.9497 7.77409 62.9497 8.24448C62.9497 8.70728 62.999 9.09421 63.0977 9.40527C63.2039 9.71634 63.3632 9.95153 63.5757 10.1109C63.7957 10.2626 64.0802 10.3385 64.4292 10.3385C64.7402 10.3385 65.002 10.2474 65.2144 10.0653C65.4269 9.88325 65.5672 9.59874 65.6355 9.21181L67.7067 9.76945ZM75.8713 4.48895L73.2425 9.33699V12H70.9095V9.33699L68.2692 4.48895H70.625L71.5354 6.36671L72.0931 7.67546L72.6393 6.36671L73.5611 4.48895H75.8713Z" fill="#3A3A3A"/>
<path id="Heading 2 &#226;&#134;&#146; 10+ years of&#10;building e-com&#10;solutions_2" d="M5.04108 19.4385H3.50671L3.23637 18.4375H1.76775L1.4901 19.4385H-0.000435274L1.62162 14.6162H3.41172L5.04108 19.4385ZM2.01617 17.473H2.99525L2.50571 15.6756L2.01617 17.473ZM7.83018 14.5431C8.28806 14.5431 8.69479 14.6064 9.05037 14.7331C9.40596 14.8548 9.71771 15.0424 9.98561 15.2957L9.33533 16.2528C9.11613 16.0677 8.88232 15.924 8.6339 15.8217C8.39035 15.7146 8.12001 15.661 7.82287 15.661C7.67187 15.661 7.5501 15.6756 7.45755 15.7048C7.365 15.7341 7.2968 15.7755 7.25296 15.829C7.214 15.8778 7.19451 15.9338 7.19451 15.9971C7.19451 16.075 7.24079 16.1384 7.33334 16.1871C7.43076 16.2358 7.56471 16.2796 7.7352 16.3186L8.46585 16.4866C8.95295 16.5987 9.31585 16.7643 9.55453 16.9835C9.79321 17.1978 9.91255 17.4925 9.91255 17.8676C9.91255 18.2329 9.82 18.5373 9.6349 18.7809C9.45467 19.0244 9.20625 19.2071 8.88963 19.3289C8.57301 19.4507 8.21499 19.5115 7.81557 19.5115C7.49895 19.5115 7.18964 19.4799 6.88764 19.4166C6.5905 19.3532 6.31773 19.2631 6.0693 19.1462C5.82088 19.0244 5.60655 18.8807 5.42633 18.7151L6.0693 17.7287C6.20082 17.8554 6.36156 17.9699 6.55153 18.0722C6.74151 18.1696 6.94365 18.2475 7.15798 18.306C7.3723 18.3644 7.57932 18.3936 7.77904 18.3936C7.9203 18.3936 8.03476 18.3815 8.12244 18.3571C8.21499 18.3279 8.28075 18.2889 8.31972 18.2402C8.35869 18.1915 8.37817 18.133 8.37817 18.0648C8.37817 17.982 8.34651 17.9163 8.28319 17.8676C8.21986 17.814 8.10052 17.7677 7.92517 17.7287L7.12145 17.5461C6.85841 17.4876 6.61486 17.4073 6.39079 17.305C6.16672 17.2027 5.98649 17.0614 5.85011 16.8812C5.71859 16.6961 5.65283 16.455 5.65283 16.1578C5.65283 15.8412 5.73807 15.5611 5.90856 15.3176C6.07904 15.074 6.32747 14.8841 6.65383 14.7477C6.98019 14.6113 7.3723 14.5431 7.83018 14.5431ZM15.3382 18.0064C15.2505 18.362 15.1019 18.6518 14.8925 18.8759C14.6879 19.0999 14.437 19.2631 14.1399 19.3654C13.8476 19.4628 13.5237 19.5115 13.1681 19.5115C12.6713 19.5115 12.2402 19.4141 11.8749 19.2193C11.5144 19.0196 11.2368 18.7346 11.0419 18.3644C10.8471 17.9942 10.7497 17.5485 10.7497 17.0273C10.7497 16.5061 10.8471 16.0604 11.0419 15.6902C11.2368 15.32 11.5144 15.0375 11.8749 14.8427C12.2402 14.6429 12.6688 14.5431 13.1608 14.5431C13.5115 14.5431 13.833 14.5918 14.1253 14.6892C14.4224 14.7866 14.6733 14.9376 14.8779 15.1422C15.0824 15.3468 15.2213 15.6123 15.2943 15.9386L14.0011 16.4574C13.9475 16.1457 13.8525 15.9386 13.7161 15.8363C13.5846 15.7341 13.4141 15.6829 13.2047 15.6829C13.0098 15.6829 12.8418 15.7341 12.7005 15.8363C12.5641 15.9338 12.4594 16.0823 12.3863 16.282C12.3181 16.4769 12.284 16.7253 12.284 17.0273C12.284 17.3244 12.3157 17.5729 12.379 17.7726C12.4472 17.9723 12.5495 18.1233 12.6859 18.2256C12.8271 18.323 13.0098 18.3717 13.2339 18.3717C13.4336 18.3717 13.6016 18.3133 13.738 18.1964C13.8744 18.0795 13.9645 17.8968 14.0084 17.6484L15.3382 18.0064ZM16.8935 18.0502C17.1565 18.0502 17.3587 18.1136 17.4999 18.2402C17.6412 18.3668 17.7118 18.5446 17.7118 18.7736C17.7118 19.0025 17.6412 19.1803 17.4999 19.307C17.3587 19.4336 17.1565 19.4969 16.8935 19.4969C16.6402 19.4969 16.4405 19.4336 16.2943 19.307C16.1482 19.1803 16.0752 19.0025 16.0752 18.7736C16.0752 18.5446 16.1482 18.3668 16.2943 18.2402C16.4405 18.1136 16.6402 18.0502 16.8935 18.0502ZM23.0134 18.0064C22.9257 18.362 22.7772 18.6518 22.5677 18.8759C22.3631 19.0999 22.1123 19.2631 21.8151 19.3654C21.5229 19.4628 21.1989 19.5115 20.8434 19.5115C20.3465 19.5115 19.9154 19.4141 19.5501 19.2193C19.1896 19.0196 18.912 18.7346 18.7171 18.3644C18.5223 17.9942 18.4249 17.5485 18.4249 17.0273C18.4249 16.5061 18.5223 16.0604 18.7171 15.6902C18.912 15.32 19.1896 15.0375 19.5501 14.8427C19.9154 14.6429 20.3441 14.5431 20.836 14.5431C21.1868 14.5431 21.5082 14.5918 21.8005 14.6892C22.0976 14.7866 22.3485 14.9376 22.5531 15.1422C22.7577 15.3468 22.8965 15.6123 22.9696 15.9386L21.6763 16.4574C21.6227 16.1457 21.5277 15.9386 21.3913 15.8363C21.2598 15.7341 21.0893 15.6829 20.8799 15.6829C20.685 15.6829 20.517 15.7341 20.3757 15.8363C20.2393 15.9338 20.1346 16.0823 20.0616 16.282C19.9934 16.4769 19.9593 16.7253 19.9593 17.0273C19.9593 17.3244 19.9909 17.5729 20.0542 17.7726C20.1224 17.9723 20.2247 18.1233 20.3611 18.2256C20.5024 18.323 20.685 18.3717 20.9091 18.3717C21.1088 18.3717 21.2769 18.3133 21.4133 18.1964C21.5497 18.0795 21.6398 17.8968 21.6836 17.6484L23.0134 18.0064ZM28.2553 14.6162L26.5675 17.7287V19.4385H25.0697V17.7287L23.3746 14.6162H24.887L25.4715 15.8217L25.8296 16.662L26.1803 15.8217L26.7721 14.6162H28.2553ZM29.1226 19.4385V14.6162H31.6872C32.2912 14.621 32.7369 14.7331 33.0243 14.9523C33.3166 15.1666 33.4627 15.4856 33.4627 15.9094C33.4627 16.1871 33.3775 16.4257 33.207 16.6255C33.0414 16.8252 32.7808 16.9518 32.4252 17.0054V17.0127C32.8197 17.0614 33.112 17.1881 33.302 17.3926C33.4919 17.5972 33.5869 17.8505 33.5869 18.1525C33.5869 18.5714 33.4408 18.8905 33.1485 19.1097C32.8611 19.3289 32.4252 19.4385 31.8407 19.4385H29.1226ZM30.5547 18.4302H31.4973C31.6872 18.4302 31.8285 18.3936 31.921 18.3206C32.0136 18.2426 32.0599 18.133 32.0599 17.9918C32.0599 17.8505 32.0136 17.7434 31.921 17.6703C31.8285 17.5972 31.6872 17.5607 31.4973 17.5607H30.5547V18.4302ZM30.5547 16.5305H31.3877C31.753 16.5305 31.9357 16.3868 31.9357 16.0994C31.9357 15.812 31.753 15.6683 31.3877 15.6683H30.5547V16.5305ZM34.5693 19.4385V14.6162H38.4563V15.7341H36.0598V16.5159H37.9741V17.5534H36.0598V18.3206H38.5513V19.4385H34.5693ZM42.0003 14.6162C42.5994 14.6162 43.0622 14.755 43.3885 15.0326C43.7198 15.3054 43.8854 15.6707 43.8854 16.1286C43.8854 16.6401 43.7246 17.0273 43.4032 17.2904C43.0817 17.5534 42.6189 17.6849 42.0149 17.6849L41.8688 17.7653H40.992V19.4385H39.5307V14.6162H42.0003ZM41.7592 16.7497C41.9686 16.7497 42.1245 16.7107 42.2268 16.6328C42.334 16.55 42.3875 16.416 42.3875 16.2309C42.3875 16.0458 42.334 15.9118 42.2268 15.829C42.1245 15.7462 41.9686 15.7048 41.7592 15.7048H40.992V16.7497H41.7592ZM42.6433 17.0638L44.163 19.4385H42.5337L41.3573 17.3269L42.6433 17.0638ZM49.5505 14.6162V19.4385H47.9139L46.5987 17.0492L46.2918 16.399H46.2772L46.3064 17.3488V19.4385H45.0058V14.6162H46.6352L47.9504 17.0054L48.2646 17.6557H48.2719L48.2426 16.7058V14.6162H49.5505ZM50.8164 19.4385V14.6162H54.7035V15.7341H52.3069V16.5159H54.2212V17.5534H52.3069V18.3206H54.7984V19.4385H50.8164ZM60.0667 14.6162V15.7341H58.5324V19.4385H57.0418V15.7341H55.4928V14.6162H60.0667ZM62.5437 14.6162V19.4385H61.0532V14.6162H62.5437ZM68.2156 18.0064C68.128 18.362 67.9794 18.6518 67.7699 18.8759C67.5654 19.0999 67.3145 19.2631 67.0174 19.3654C66.7251 19.4628 66.4012 19.5115 66.0456 19.5115C65.5488 19.5115 65.1177 19.4141 64.7523 19.2193C64.3919 19.0196 64.1142 18.7346 63.9194 18.3644C63.7246 17.9942 63.6271 17.5485 63.6271 17.0273C63.6271 16.5061 63.7246 16.0604 63.9194 15.6902C64.1142 15.32 64.3919 15.0375 64.7523 14.8427C65.1177 14.6429 65.5463 14.5431 66.0383 14.5431C66.389 14.5431 66.7105 14.5918 67.0028 14.6892C67.2999 14.7866 67.5507 14.9376 67.7553 15.1422C67.9599 15.3468 68.0987 15.6123 68.1718 15.9386L66.8785 16.4574C66.825 16.1457 66.73 15.9386 66.5936 15.8363C66.4621 15.7341 66.2916 15.6829 66.0821 15.6829C65.8873 15.6829 65.7192 15.7341 65.578 15.8363C65.4416 15.9338 65.3369 16.0823 65.2638 16.282C65.1956 16.4769 65.1615 16.7253 65.1615 17.0273C65.1615 17.3244 65.1932 17.5729 65.2565 17.7726C65.3247 17.9723 65.427 18.1233 65.5634 18.2256C65.7046 18.323 65.8873 18.3717 66.1114 18.3717C66.3111 18.3717 66.4791 18.3133 66.6155 18.1964C66.7519 18.0795 66.842 17.8968 66.8859 17.6484L68.2156 18.0064ZM71.1443 14.5431C71.6021 14.5431 72.0089 14.6064 72.3644 14.7331C72.72 14.8548 73.0318 15.0424 73.2997 15.2957L72.6494 16.2528C72.4302 16.0677 72.1964 15.924 71.948 15.8217C71.7044 15.7146 71.4341 15.661 71.1369 15.661C70.9859 15.661 70.8642 15.6756 70.7716 15.7048C70.6791 15.7341 70.6109 15.7755 70.567 15.829C70.5281 15.8778 70.5086 15.9338 70.5086 15.9971C70.5086 16.075 70.5549 16.1384 70.6474 16.1871C70.7448 16.2358 70.8788 16.2796 71.0493 16.3186L71.7799 16.4866C72.267 16.5987 72.6299 16.7643 72.8686 16.9835C73.1073 17.1978 73.2266 17.4925 73.2266 17.8676C73.2266 18.2329 73.1341 18.5373 72.949 18.7809C72.7687 19.0244 72.5203 19.2071 72.2037 19.3289C71.8871 19.4507 71.5291 19.5115 71.1296 19.5115C70.813 19.5115 70.5037 19.4799 70.2017 19.4166C69.9046 19.3532 69.6318 19.2631 69.3834 19.1462C69.1349 19.0244 68.9206 18.8807 68.7404 18.7151L69.3834 17.7287C69.5149 17.8554 69.6756 17.9699 69.8656 18.0722C70.0556 18.1696 70.2577 18.2475 70.472 18.306C70.6864 18.3644 70.8934 18.3936 71.0931 18.3936C71.2344 18.3936 71.3488 18.3815 71.4365 18.3571C71.5291 18.3279 71.5948 18.2889 71.6338 18.2402C71.6728 18.1915 71.6922 18.133 71.6922 18.0648C71.6922 17.982 71.6606 17.9163 71.5973 17.8676C71.5339 17.814 71.4146 17.7677 71.2392 17.7287L70.4355 17.5461C70.1725 17.4876 69.9289 17.4073 69.7049 17.305C69.4808 17.2027 69.3006 17.0614 69.1642 16.8812C69.0327 16.6961 68.9669 16.455 68.9669 16.1578C68.9669 15.8412 69.0521 15.5611 69.2226 15.3176C69.3931 15.074 69.6415 14.8841 69.9679 14.7477C70.2943 14.6113 70.6864 14.5431 71.1443 14.5431Z" fill="#3A3A3A"/>
</g>
</g>
</g>
</g>
</g>
</g>
</g>
</svg>
