<svg width="109" height="18" viewBox="0 0 109 18" fill="none" xmlns="http://www.w3.org/2000/svg">
<rect width="109" height="18" fill="#767171"/>
<g id="Recognized and awarded ">
<rect width="1440" height="2856" transform="translate(-696 -2111.69)" fill="white"/>
<rect width="1440" height="2856" transform="translate(-696 -2111.69)" fill="#E5E5DE"/>
<g id="Frame 2147236516">
<mask id="path-1-inside-1_80_2" fill="white">
<path d="M-201 -137.686H692V42.9719H-201V-137.686Z"/>
</mask>
<path d="M-201 -137.686H692V42.9719H-201V-137.686Z" fill="#EBEBE4"/>
<path d="M-201 42.9719H-197V-137.686H-201H-205V42.9719H-201Z" fill="#FF0000" mask="url(#path-1-inside-1_80_2)"/>
<g id="Frame 2147236476">
<g id="Frame 2147236481">
<g id="Frame 2147236477">
<g id="Group">
<g id="XMLID_1_">
<path id="XMLID_3_" d="M108.99 3.46973H0.776367V4.0987H108.99V3.46973Z" fill="#3A3A3A"/>
<path id="XMLID_4_" d="M18.7226 4.72266H0.776367V5.35164H18.7226V4.72266Z" fill="#3A3A3A"/>
<path id="XMLID_7_" d="M19.3223 4.72266H28.8489C31.8953 4.72266 33.4174 6.66716 33.4174 8.94C33.4174 11.6307 31.2077 13.2767 28.8489 13.2767H22.3985V17.0442H19.3223V4.72266ZM22.3985 7.47523V10.6457H28.4018C29.8942 10.6457 30.254 9.77793 30.254 8.9997C30.254 8.34087 29.9261 7.50508 28.4018 7.50508H22.3985V7.47523Z" fill="#3A3A3A"/>
<path id="XMLID_10_" d="M40.0767 14.6867H35.5678L34.7311 17.0491H31.4463L36.3746 4.72754H39.57L44.1982 17.0491H40.8537L40.0767 14.6867ZM36.4619 12.1729H39.2698L37.9563 8.07498L36.4619 12.1729Z" fill="#3A3A3A"/>
<path id="XMLID_13_" d="M44.7043 4.72266H50.5267C53.2751 4.72266 54.6482 6.66716 54.6482 8.94C54.6482 10.7651 53.7221 12.1105 52.498 12.7693L54.6482 17.0463H51.1845L49.4814 13.2789H47.7783V17.0463H44.7021V4.72266H44.7043ZM47.7805 7.47523V10.6457H49.7816C50.9759 10.6457 51.4847 9.77793 51.4847 8.9997C51.4847 8.34087 51.0078 7.50508 49.7816 7.50508H47.7805V7.47523Z" fill="#3A3A3A"/>
<path id="XMLID_14_" d="M55.3652 8.46445C55.3652 5.86326 57.4558 4.45605 60.1126 4.45605C61.6645 4.45605 63.3676 4.8441 64.3533 5.41338L63.7551 8.04442C62.7396 7.41545 61.1877 7.11695 59.9934 7.11695C59.0375 7.11695 58.3818 7.47515 58.3818 8.13397C58.3818 10.1382 64.6832 9.00175 64.6832 13.1594C64.6832 15.3725 63.1015 17.2872 59.8465 17.2872C58.4436 17.2872 56.8597 17.1081 55.576 16.509L55.6952 13.6967C56.9789 14.3257 58.3818 14.654 59.9359 14.654C61.2792 14.654 61.639 14.1764 61.639 13.6071C61.6369 11.7543 55.3652 12.831 55.3652 8.46445Z" fill="#3A3A3A"/>
<path id="XMLID_17_" d="M72.2966 4.45605C76.5373 4.45605 79.5837 6.63935 79.5837 10.797C79.5837 15.1337 76.2988 17.2573 72.2966 17.2573C68.2645 17.2573 64.9797 15.074 64.9797 10.797C64.952 6.7886 67.9367 4.45605 72.2966 4.45605ZM72.237 14.686C74.6553 14.686 76.3882 13.46 76.3882 10.7373C76.3882 8.28535 74.6553 7.02953 72.237 7.02953C69.8484 7.02953 68.1155 8.22565 68.1155 10.8268C68.1155 13.4579 69.8484 14.686 72.237 14.686Z" fill="#3A3A3A"/>
<path id="XMLID_18_" d="M84.0635 8.40271H83.3163V17.0463H80.2422V4.72266H84.5425L92.6939 12.5007H93.4411V4.72266H96.5173V17.0463H92.8131L84.0635 8.40271Z" fill="#3A3A3A"/>
<path id="XMLID_19_" d="M97.6514 8.46445C97.6514 5.86326 100.1 4.45605 103.414 4.45605C105.505 4.45605 107.685 4.8441 108.641 5.41338L108.042 8.04442C107.027 7.41545 104.936 7.11695 103.295 7.11695C101.532 7.11695 100.698 7.47515 100.698 8.13397C100.698 10.2576 109 8.61157 109 13.1594C109 15.3725 107.118 17.2872 103.148 17.2872C101.356 17.2872 99.1756 17.1081 97.8919 16.509L98.0111 13.6967C99.2948 14.3257 101.147 14.654 103.237 14.654C105.239 14.654 105.924 14.1764 105.924 13.6071C105.952 11.6051 97.6514 13.1892 97.6514 8.46445Z" fill="#3A3A3A"/>
<path id="XMLID_20_" d="M1.58174 0.688547V2.87184H0.866446V0.688547H0V0.0595703H2.47799V0.688547H1.58174Z" fill="#3A3A3A"/>
<path id="XMLID_21_" d="M5.22774 1.79512H3.37563V2.87184H2.6582V0.0595703H3.37563V1.13629H5.22774V0.0595703H5.94303V2.87184H5.22774V1.79512Z" fill="#3A3A3A"/>
<path id="XMLID_22_" d="M6.24219 2.87184V0.0595703H8.24332V0.688547H6.95748V1.16614H8.00275V1.76527H6.95748V2.24287H8.24332V2.87184H6.24219Z" fill="#3A3A3A"/>
<path id="XMLID_23_" d="M10.1524 1.07659H10.0331V2.87184H9.34766V0.0595703H10.1524L11.7958 1.82497H11.9151V0.0595703H12.6027V2.87184H11.8256L10.1524 1.07659Z" fill="#3A3A3A"/>
<path id="XMLID_24_" d="M12.9307 2.87184V0.0595703H14.9318V0.688547H13.6481V1.16614H14.6912V1.76527H13.6481V2.24287H14.9318V2.87184H12.9307Z" fill="#3A3A3A"/>
<path id="XMLID_25_" d="M14.9912 0.0595703H15.7959L16.3941 2.30256H16.573L17.1116 0.0595703H18.4549L19.0829 2.30256H19.2319L19.7684 0.0595703H20.5752L19.7982 2.87184H18.5443L17.8865 0.628848H17.7076L17.1116 2.87184H15.8577L14.9912 0.0595703Z" fill="#3A3A3A"/>
<path id="XMLID_26_" d="M21.3838 0.927473C21.3838 0.328345 21.8607 0 22.4589 0C22.8165 0 23.2061 0.0895484 23.4147 0.208947L23.2955 0.808074C23.0571 0.658825 22.6973 0.599127 22.4291 0.599127C22.2204 0.599127 22.0714 0.688675 22.0714 0.837924C22.0714 1.28567 23.5041 1.04687 23.5041 1.97435C23.5041 2.48179 23.1465 2.93167 22.3993 2.93167C22.0714 2.93167 21.7116 2.90182 21.4136 2.75257L21.4434 2.09375C21.7414 2.24299 22.0714 2.30269 22.3993 2.30269C22.6973 2.30269 22.7867 2.1833 22.7867 2.0639C22.8165 1.67585 21.3838 1.91465 21.3838 0.927473Z" fill="#3A3A3A"/>
<path id="XMLID_27_" d="M25.8631 2.84194C25.6246 2.93149 25.4458 2.9315 25.1158 2.9315C24.2494 2.9315 23.6533 2.24282 23.6533 1.46672C23.6533 0.658647 24.2813 0.00195312 25.1755 0.00195312C25.4139 0.00195312 25.6821 0.00195274 25.8929 0.091502L25.8333 0.720479C25.5948 0.630929 25.416 0.63093 25.2053 0.63093C24.6986 0.63093 24.3686 0.929429 24.3686 1.46886C24.3686 2.00615 24.7263 2.30678 25.2053 2.30678C25.5331 2.30678 25.6225 2.27693 25.8333 2.21723V2.84621H25.8631V2.84194Z" fill="#3A3A3A"/>
<path id="XMLID_28_" d="M28.7271 1.79512H26.8771V2.87184H26.1895V0.0595703H26.8771V1.13629H28.7271V0.0595703H29.4445V2.87184H28.7271V1.79512Z" fill="#3A3A3A"/>
<path id="XMLID_31_" d="M31.2963 0C32.2521 0 32.9696 0.507445 32.9696 1.46477C32.9696 2.45194 32.2223 2.95939 31.2963 2.95939C30.3702 2.95939 29.623 2.45194 29.623 1.49462C29.5932 0.539427 30.2808 0 31.2963 0ZM31.2665 2.36239C31.8349 2.36239 32.2223 2.09375 32.2223 1.46477C32.2223 0.895492 31.8349 0.626842 31.2665 0.626842C30.73 0.626842 30.3106 0.895492 30.3106 1.49462C30.3404 2.0639 30.7279 2.36239 31.2665 2.36239Z" fill="#3A3A3A"/>
<path id="XMLID_34_" d="M34.7602 0C35.7161 0 36.4335 0.507445 36.4335 1.46477C36.4335 2.45194 35.6863 2.95939 34.7602 2.95939C33.8341 2.95939 33.0869 2.45194 33.0869 1.49462C33.0869 0.539427 33.7745 0 34.7602 0ZM34.7304 2.36239C35.2988 2.36239 35.6863 2.09375 35.6863 1.46477C35.6863 0.895492 35.2988 0.626842 34.7304 0.626842C34.1939 0.626842 33.7745 0.895492 33.7745 1.49462C33.8043 2.0639 34.1918 2.36239 34.7304 2.36239Z" fill="#3A3A3A"/>
<path id="XMLID_35_" d="M36.6133 0.0595703H37.3286V2.21302H39.5085V2.87184H36.6133V0.0595703Z" fill="#3A3A3A"/>
</g>
</g>
</g>
</g>
</g>
</g>
</g>
</svg>
