<svg width="63" height="20" viewBox="0 0 63 20" fill="none" xmlns="http://www.w3.org/2000/svg">
<rect width="63" height="20" fill="#767171"/>
<g id="Recognized and awarded ">
<rect width="1440" height="2856" transform="translate(-887.189 -2110.35)" fill="white"/>
<rect width="1440" height="2856" transform="translate(-887.189 -2110.35)" fill="#E5E5DE"/>
<g id="Frame 2147236516">
<mask id="path-1-inside-1_80_2" fill="white">
<path d="M-392.189 -136.35H500.811V44.3079H-392.189V-136.35Z"/>
</mask>
<path d="M-392.189 -136.35H500.811V44.3079H-392.189V-136.35Z" fill="#EBEBE4"/>
<path d="M-392.189 44.3079H-388.189V-136.35H-392.189H-396.189V44.3079H-392.189Z" fill="#FF0000" mask="url(#path-1-inside-1_80_2)"/>
<g id="Frame 2147236476">
<g id="Frame 2147236481">
<g id="Frame 2147236477">
<g id="Frame 1171277121">
<path id="Subtract" d="M20.1982 19.1172L10.5801 18.877C9.81863 17.9953 9.25813 15.4856 13.1055 12.5039L0 18.877L10.0996 0L20.1982 19.1172ZM4.3291 14.0684H5.53125L5.0498 11.6641L4.3291 14.0684ZM5.89258 12.8662H7.45605L6.61426 9.86035L5.89258 12.8662Z" fill="#3A3A3A"/>
<path id="UTAH ENTREPRENEUR CHALLENGE" d="M22.4692 0.758833H23.1693V3.05589C23.1693 3.4127 23.178 3.6451 23.1954 3.75311C23.2262 3.94019 23.2995 4.08484 23.4153 4.18706C23.5329 4.28928 23.6872 4.34039 23.8781 4.34039C24.0401 4.34039 24.1723 4.30471 24.2745 4.23335C24.3767 4.16006 24.4461 4.05977 24.4828 3.93248C24.5213 3.80325 24.5406 3.52745 24.5406 3.10507V0.758833H25.2436V2.98646C25.2436 3.55542 25.2128 3.96719 25.1511 4.22178C25.0913 4.47443 24.9543 4.67984 24.7403 4.83799C24.5281 4.99421 24.2475 5.07233 23.8984 5.07233C23.5358 5.07233 23.2523 5.00771 23.0478 4.87849C22.8453 4.74734 22.6978 4.56412 22.6052 4.32882C22.5146 4.09159 22.4692 3.65571 22.4692 3.02117V0.758833ZM26.7239 5V1.4763H25.6911V0.758833H28.4539V1.4763H27.424V5H26.7239ZM31.6497 5H30.886L30.5822 4.03662H29.1936L28.9071 5H28.1608L29.5147 0.758833H30.2582L31.6497 5ZM30.3566 3.32205L29.8792 1.74825L29.4076 3.32205H30.3566ZM31.9815 5V0.758833H32.6816V2.42811H34.0586V0.758833H34.7616V5H34.0586V3.14557H32.6816V5H31.9815ZM22.4779 12V7.75883H25.0585V8.4763H23.178V9.41653H24.9254V10.1311H23.178V11.2854H25.1221V12H22.4779ZM25.6824 12V7.75883H26.3652L27.7885 10.5911V7.75883H28.4423V12H27.7364L26.3362 9.23427V12H25.6824ZM29.9226 12V8.4763H28.8898V7.75883H31.6526V8.4763H30.6227V12H29.9226ZM32.0682 12V7.75883H33.5466C33.9246 7.75883 34.1946 7.79741 34.3566 7.87455C34.5186 7.94977 34.6517 8.08189 34.7559 8.2709C34.86 8.45798 34.9121 8.68267 34.9121 8.94497C34.9121 9.2767 34.832 9.54383 34.672 9.74634C34.5138 9.94885 34.2882 10.0761 33.995 10.1282C34.1454 10.2362 34.2698 10.3548 34.3682 10.4841C34.4666 10.6114 34.6006 10.8409 34.7703 11.1726L35.1927 12H34.3566L33.8475 11.0771C33.6642 10.7435 33.5398 10.5352 33.4743 10.4522C33.4087 10.3674 33.3392 10.3095 33.266 10.2787C33.1927 10.2459 33.075 10.2295 32.913 10.2295H32.7684V12H32.0682ZM32.7684 9.55251H33.2891C33.6073 9.55251 33.8098 9.539 33.8966 9.512C33.9834 9.48307 34.0538 9.42618 34.1078 9.34132C34.1618 9.25645 34.1888 9.14363 34.1888 9.00283C34.1888 8.86782 34.1618 8.75982 34.1078 8.67881C34.0538 8.59588 33.9805 8.53898 33.888 8.50813C33.8224 8.48691 33.6324 8.4763 33.318 8.4763H32.7684V9.55251ZM35.5331 12V7.75883H38.1137V8.4763H36.2332V9.41653H37.9806V10.1311H36.2332V11.2854H38.1773V12H35.5331ZM38.7289 12V7.75883H39.8572C40.2777 7.75883 40.5525 7.77908 40.6817 7.81959C40.8881 7.88516 41.0578 8.02499 41.1909 8.23907C41.3259 8.45316 41.3934 8.72896 41.3934 9.06648C41.3934 9.37314 41.3355 9.63062 41.2198 9.83891C41.1041 10.0453 40.9594 10.1909 40.7859 10.2758C40.6123 10.3587 40.3133 10.4002 39.889 10.4002H39.429V12H38.7289ZM39.429 8.4763V9.6798H39.8167C40.0771 9.6798 40.2536 9.66148 40.3461 9.62483C40.4406 9.58819 40.5178 9.52261 40.5776 9.42811C40.6374 9.33167 40.6673 9.21402 40.6673 9.07516C40.6673 8.93436 40.6364 8.81575 40.5747 8.71932C40.513 8.62288 40.4368 8.55827 40.3461 8.52548C40.2555 8.4927 40.0636 8.4763 39.7704 8.4763H39.429ZM41.9305 12V7.75883H43.4089C43.7869 7.75883 44.0569 7.79741 44.2189 7.87455C44.3809 7.94977 44.514 8.08189 44.6181 8.2709C44.7223 8.45798 44.7744 8.68267 44.7744 8.94497C44.7744 9.2767 44.6943 9.54383 44.5342 9.74634C44.3761 9.94885 44.1504 10.0761 43.8573 10.1282C44.0077 10.2362 44.1321 10.3548 44.2305 10.4841C44.3288 10.6114 44.4629 10.8409 44.6326 11.1726L45.055 12H44.2189L43.7097 11.0771C43.5265 10.7435 43.4021 10.5352 43.3365 10.4522C43.271 10.3674 43.2015 10.3095 43.1282 10.2787C43.0549 10.2459 42.9373 10.2295 42.7753 10.2295H42.6306V12H41.9305ZM42.6306 9.55251H43.1514C43.4696 9.55251 43.6721 9.539 43.7589 9.512C43.8457 9.48307 43.9161 9.42618 43.9701 9.34132C44.0241 9.25645 44.0511 9.14363 44.0511 9.00283C44.0511 8.86782 44.0241 8.75982 43.9701 8.67881C43.9161 8.59588 43.8428 8.53898 43.7502 8.50813C43.6847 8.48691 43.4947 8.4763 43.1803 8.4763H42.6306V9.55251ZM45.3954 12V7.75883H47.976V8.4763H46.0955V9.41653H47.8429V10.1311H46.0955V11.2854H48.0396V12H45.3954ZM48.5999 12V7.75883H49.2826L50.706 10.5911V7.75883H51.3598V12H50.6539L49.2537 9.23427V12H48.5999ZM52.059 12V7.75883H54.6395V8.4763H52.7591V9.41653H54.5065V10.1311H52.7591V11.2854H54.7032V12H52.059ZM55.249 7.75883H55.9491V10.0559C55.9491 10.4127 55.9578 10.6451 55.9751 10.7531C56.006 10.9402 56.0793 11.0848 56.195 11.1871C56.3127 11.2893 56.467 11.3404 56.6579 11.3404C56.8199 11.3404 56.952 11.3047 57.0542 11.2333C57.1565 11.1601 57.2259 11.0598 57.2625 10.9325C57.3011 10.8033 57.3204 10.5275 57.3204 10.1051V7.75883H58.0234V9.98646C58.0234 10.5554 57.9925 10.9672 57.9308 11.2218C57.871 11.4744 57.7341 11.6798 57.52 11.838C57.3079 11.9942 57.0272 12.0723 56.6781 12.0723C56.3156 12.0723 56.032 12.0077 55.8276 11.8785C55.6251 11.7473 55.4775 11.5641 55.385 11.3288C55.2943 11.0916 55.249 10.6557 55.249 10.0212V7.75883ZM58.7225 12V7.75883H60.2009C60.5789 7.75883 60.8489 7.79741 61.0109 7.87455C61.1729 7.94977 61.306 8.08189 61.4102 8.2709C61.5143 8.45798 61.5664 8.68267 61.5664 8.94497C61.5664 9.2767 61.4863 9.54383 61.3263 9.74634C61.1681 9.94885 60.9425 10.0761 60.6493 10.1282C60.7997 10.2362 60.9241 10.3548 61.0225 10.4841C61.1209 10.6114 61.2549 10.8409 61.4246 11.1726L61.847 12H61.0109L60.5017 11.0771C60.3185 10.7435 60.1941 10.5352 60.1285 10.4522C60.063 10.3674 59.9935 10.3095 59.9203 10.2787C59.847 10.2459 59.7293 10.2295 59.5673 10.2295H59.4227V12H58.7225ZM59.4227 9.55251H59.9434C60.2616 9.55251 60.4641 9.539 60.5509 9.512C60.6377 9.48307 60.7081 9.42618 60.7621 9.34132C60.8161 9.25645 60.8431 9.14363 60.8431 9.00283C60.8431 8.86782 60.8161 8.75982 60.7621 8.67881C60.7081 8.59588 60.6348 8.53898 60.5422 8.50813C60.4767 8.48691 60.2867 8.4763 59.9723 8.4763H59.4227V9.55251ZM24.7026 17.4407L25.3825 17.7039C25.2764 18.1784 25.1 18.5255 24.8531 18.7454C24.6062 18.9634 24.3024 19.0723 23.9418 19.0723C23.4885 19.0723 23.1211 18.8978 22.8395 18.5487C22.5155 18.1456 22.3535 17.6017 22.3535 16.917C22.3535 16.1938 22.5165 15.6277 22.8424 15.2188C23.1259 14.8639 23.5069 14.6865 23.9852 14.6865C24.3748 14.6865 24.7007 14.8196 24.963 15.0857C25.1501 15.2748 25.287 15.5554 25.3738 15.9276L24.6795 16.1301C24.6351 15.9006 24.5464 15.7251 24.4133 15.6036C24.2822 15.4802 24.1269 15.4184 23.9476 15.4184C23.6911 15.4184 23.4818 15.5303 23.3198 15.754C23.1578 15.9778 23.0768 16.3471 23.0768 16.8621C23.0768 17.3963 23.1558 17.7763 23.314 18.0019C23.4721 18.2276 23.6776 18.3404 23.9302 18.3404C24.1154 18.3404 24.2754 18.269 24.4104 18.1263C24.5455 17.9817 24.6429 17.7531 24.7026 17.4407ZM25.9428 19V14.7588H26.6429V16.4281H28.02V14.7588H28.723V19H28.02V17.1456H26.6429V19H25.9428ZM32.5408 19H31.777L31.4733 18.0366H30.0846L29.7982 19H29.0518L30.4057 14.7588H31.1492L32.5408 19ZM31.2476 17.322L30.7703 15.7482L30.2987 17.322H31.2476ZM32.8899 19V14.7935H33.59V18.2854H35.3374V19H32.8899ZM35.8166 19V14.7935H36.5167V18.2854H38.2641V19H35.8166ZM38.726 19V14.7588H41.3066V15.4763H39.4261V16.4165H41.1735V17.1311H39.4261V18.2854H41.3703V19H38.726ZM41.9305 19V14.7588H42.6133L44.0366 17.5911V14.7588H44.6905V19H43.9846L42.5844 16.2343V19H41.9305ZM47.0068 17.4407V16.7261H48.5199V18.4156C48.3675 18.595 48.1515 18.7493 47.8718 18.8785C47.5922 19.0077 47.3115 19.0723 47.0299 19.0723C46.6866 19.0723 46.3838 18.9884 46.1215 18.8206C45.8592 18.6509 45.6509 18.3983 45.4966 18.0627C45.3443 17.7251 45.2681 17.3288 45.2681 16.8736C45.2681 16.4069 45.3452 16.0077 45.4995 15.6759C45.6558 15.3442 45.8573 15.0964 46.1042 14.9324C46.353 14.7685 46.65 14.6865 46.9952 14.6865C47.4099 14.6865 47.7416 14.7926 47.9904 15.0047C48.2412 15.215 48.4022 15.5245 48.4736 15.9334L47.7792 16.0925C47.7272 15.8746 47.6317 15.7077 47.4928 15.592C47.354 15.4763 47.1881 15.4184 46.9952 15.4184C46.6963 15.4184 46.4542 15.5351 46.2691 15.7685C46.0839 15.9999 45.9914 16.3539 45.9914 16.8302C45.9914 17.3413 46.0916 17.73 46.2922 17.9961C46.4639 18.2256 46.6963 18.3404 46.9894 18.3404C47.1264 18.3404 47.2681 18.3086 47.4147 18.2449C47.5632 18.1793 47.6953 18.0906 47.8111 17.9788V17.4407H47.0068ZM49.1322 19V14.7588H51.7128V15.4763H49.8323V16.4165H51.5797V17.1311H49.8323V18.2854H51.7764V19H49.1322Z" fill="#3A3A3A"/>
</g>
</g>
</g>
</g>
</g>
</g>
</svg>
