<svg width="47" height="27" viewBox="0 0 47 27" fill="none" xmlns="http://www.w3.org/2000/svg">
<rect width="47" height="27" fill="#767171"/>
<g id="Recognized and awarded ">
<rect width="1440" height="2856" transform="translate(-823 -2107)" fill="white"/>
<rect width="1440" height="2856" transform="translate(-823 -2107)" fill="#E5E5DE"/>
<g id="Frame 2147236516">
<mask id="path-1-inside-1_80_2" fill="white">
<path d="M-328 -133H565V47.6575H-328V-133Z"/>
</mask>
<path d="M-328 -133H565V47.6575H-328V-133Z" fill="#EBEBE4"/>
<path d="M-328 47.6575H-324V-133H-328H-332V47.6575H-328Z" fill="#FF0000" mask="url(#path-1-inside-1_80_2)"/>
<g id="Frame 2147236476">
<g id="Frame 2147236481">
<g id="Frame 2147236477">
<g id="logo 10" clip-path="url(#clip0_80_2)">
<path id="Vector" d="M7.84912 18.8238C7.84912 18.8238 11.2539 18.3672 11.2539 17.0871C11.2539 15.9416 7.53503 15.6513 7.53503 15.6513C7.53503 15.6513 11.2037 15.0443 11.2037 13.9859C11.2037 13.1466 7.29749 12.5237 7.29749 12.5237C7.29749 12.5237 11.1114 11.9958 11.1114 10.8477C11.1114 9.87113 7.57462 9.35118 7.57462 9.35118C7.57462 9.35118 11.0084 8.99223 11.0084 7.74646C11.0084 6.78837 7.38987 6.17604 7.38987 6.17604C7.38987 6.17604 10.9768 5.73527 10.9768 4.63994C10.9768 3.21468 6.23647 2.88477 6.23647 2.88477L5.49745 3.80062C5.49745 3.80062 8.74122 4.09623 8.74122 4.60562C8.74122 5.11502 0.823155 5.62705 0.767729 5.63233C0.643679 5.70096 0.458924 6.52971 0.675352 6.68807C0.828434 6.79893 8.63564 7.08398 8.63564 7.74118C8.63564 8.3931 1.47244 8.84179 0.675352 8.8893C0.295284 9.10308 0.179153 9.64943 0.582974 9.94504C0.989435 10.2433 8.69899 10.275 8.69899 10.911C8.69899 11.5498 1.04222 11.9879 0.733417 12.0064C0.350711 12.2202 0.237219 12.7665 0.64104 13.0621C0.794123 13.1782 8.63564 13.4316 8.63564 14.0862C8.63564 14.7381 1.20322 15.2607 0.802041 15.2844C0.421974 15.4982 0.305842 16.0446 0.709663 16.3402C0.862746 16.4537 8.63564 16.4642 8.63564 17.1188C8.63564 17.7707 1.43813 18.3487 0.84427 18.3857C0.464203 18.5968 0.348072 19.3728 0.751893 19.6711C0.812598 19.7133 8.10513 19.6394 9.21894 20.2939H11.3568C11.3568 19.3253 7.84648 18.8212 7.84648 18.8212L7.84912 18.8238Z" fill="#3A3A3A"/>
<path id="Vector_2" d="M11.4548 20.489V20.4019C11.4548 19.4676 8.8999 18.7471 5.73268 18.7471C2.56545 18.7471 0 19.5046 0 20.4363V25.1528H0.0343116C0.343116 25.9974 2.77924 26.6572 5.73532 26.6572C8.69139 26.6572 11.1249 25.9974 11.4363 25.1528L11.4548 25.1158V20.489Z" fill="#3A3A3A"/>
<g id="Group">
<path id="Vector_3" d="M18.8048 20.7911H19.132L21.2594 25.3915H20.8899L20.3092 24.1141H17.6091L17.0285 25.3915H16.6748L18.8021 20.7911H18.8048ZM20.1667 23.8053L18.9658 21.1607L17.7569 23.8053H20.1667ZM21.1248 20.8228H21.5022L22.938 24.8874L24.2761 20.8096H24.5401L25.8756 24.8901L27.3114 20.8228H27.6651L26.0076 25.4259H25.7331L24.3949 21.4563L23.0568 25.4259H22.7796L21.1248 20.8228ZM29.6551 20.7911H29.9824L32.1097 25.3915H31.7402L31.1596 24.1141H28.4622L27.8815 25.3915H27.5278L29.6551 20.7911ZM31.0144 23.8053L29.8135 21.1607L28.6047 23.8053H31.0144ZM32.7828 20.8228H34.7042C35.2638 20.8228 35.7151 20.9997 35.9896 21.2715C36.2123 21.4982 36.3366 21.8036 36.3354 22.1214V22.1346C36.3354 22.9 35.7679 23.3355 34.9972 23.4411L36.5043 25.3942H36.0741L34.6198 23.4991H33.1233V25.3915H32.7854V20.8228H32.7828ZM34.6646 23.193C35.4301 23.193 35.9949 22.8076 35.9949 22.1478V22.1346C35.9949 21.5196 35.5119 21.1369 34.6831 21.1369H33.1259V23.193H34.6646ZM37.3409 20.8228H38.8639C40.2997 20.8228 41.2921 21.8073 41.2921 23.0927V23.1059C41.2921 24.3939 40.2997 25.3915 38.8639 25.3915H37.3409V20.8228ZM38.8639 25.0801C40.136 25.0801 40.9384 24.2091 40.9384 23.1217V23.1085C40.9384 22.0237 40.136 21.1369 38.8639 21.1369H37.6814V25.0775H38.8639V25.0801ZM41.9255 24.7264L42.1472 24.4704C42.6487 24.9349 43.1132 25.1514 43.7836 25.1514C44.4698 25.1514 44.9423 24.766 44.9423 24.2434V24.2302C44.9423 23.7472 44.6863 23.4648 43.649 23.2563C42.551 23.0346 42.1076 22.6624 42.1076 21.9709V21.9577C42.1076 21.2794 42.7279 20.7568 43.5777 20.7568C44.2429 20.7568 44.681 20.9416 45.1429 21.3111L44.9291 21.5803C44.5574 21.2392 44.0689 21.054 43.5645 21.063C42.8915 21.063 42.4481 21.4483 42.4481 21.9261V21.9393C42.4481 22.4223 42.6962 22.7152 43.781 22.9369C44.8367 23.1534 45.2801 23.5308 45.2801 24.1986V24.2117C45.2801 24.9508 44.6467 25.4575 43.7678 25.4575C43.034 25.4575 42.4745 25.2173 41.9255 24.7264Z" fill="#3A3A3A"/>
</g>
<g id="Group_2">
<path id="Vector_4" d="M17.8412 7.00451H16.2471V6.69043H19.7732V7.00451H18.1791V11.2618H17.8412V7.00451ZM20.5096 6.69043H20.8501V8.80719H23.7745V6.69043H24.115V11.2618H23.7745V9.11863H20.8501V11.2618H20.5096V6.69043ZM25.3106 6.69043H28.5597V7.00451H25.6484V8.79927H28.2667V9.11336H25.6484V10.9477H28.594V11.2618H25.3106V6.69043Z" fill="#3A3A3A"/>
</g>
<path id="Vector_5" d="M21.1233 13.5439C21.2816 14.1114 21.44 14.6789 21.6089 15.2463C21.8992 16.2625 21.952 16.4261 22.1156 17.4475C22.274 16.4024 22.311 16.2229 22.5485 15.1513L22.8916 13.5439H24.1981L22.8626 18.8174H21.506C21.3397 18.2367 21.184 17.6534 21.0124 17.0754C20.73 16.1068 20.7142 16.0724 20.5558 15.3334C20.44 15.911 20.2902 16.4812 20.1071 17.0411L19.6003 18.8174H18.2437L16.9082 13.5466H18.22C18.7874 16.0487 18.8481 16.3232 19.0039 17.466C19.1992 16.4208 19.252 16.2202 19.5264 15.1751L19.9593 13.5466H21.1233V13.5439ZM29.6246 17.3895C29.4478 17.6534 29.2736 17.9042 29.0123 18.147C28.4883 18.6199 27.8045 18.8765 27.0987 18.8649C25.5943 18.8649 24.5359 17.9042 24.5359 16.244C24.5359 15.0193 25.1377 13.4463 27.1383 13.4463C27.4392 13.4463 28.3129 13.4753 28.9621 14.1748C29.622 14.8847 29.6616 15.8745 29.6827 16.4472H26.0588C26.0509 17.0807 26.4099 17.7088 27.2149 17.7088C28.0331 17.7088 28.3129 17.1757 28.4976 16.8167L29.6246 17.3895ZM28.1387 15.5155C28.1258 15.2517 28.0266 14.9995 27.8562 14.7976C27.6527 14.6073 27.382 14.5055 27.1035 14.5144C26.8249 14.5233 26.5613 14.6422 26.3703 14.8451C26.1671 15.0695 26.1169 15.3018 26.0694 15.5155H28.1387ZM30.6223 13.5439H32.6599C33.2141 13.5439 33.713 13.5677 34.0323 13.6706C34.2989 13.7441 34.5333 13.9045 34.6982 14.1264C34.8632 14.3482 34.9493 14.6189 34.9429 14.8953C34.9429 15.1803 34.869 15.3519 34.8453 15.4021C34.6077 15.9405 34.101 16.0461 33.8159 16.1041C34.1379 16.1569 34.5628 16.2229 34.8532 16.5528C35.0406 16.7534 35.1435 17.0437 35.1435 17.3446C35.1394 17.6191 35.0547 17.8864 34.8998 18.1131C34.7449 18.3398 34.5268 18.5159 34.2725 18.6194C33.8766 18.791 33.4517 18.8147 32.8473 18.8147H30.6223V13.5439ZM31.876 14.5284V15.6264H32.8684C33.1666 15.6185 33.6523 15.6053 33.6523 15.0589C33.6523 14.5522 33.2115 14.5311 32.9581 14.5311H31.876V14.5284ZM31.876 16.5818V17.8593H32.7945C33.2352 17.8514 33.808 17.8355 33.808 17.2311C33.808 16.5977 33.2854 16.5898 33.0162 16.5818H31.876ZM36.2204 13.5439H38.2579C38.8096 13.5439 39.3084 13.5677 39.6304 13.6706C39.8969 13.7441 40.1313 13.9045 40.2963 14.1264C40.4613 14.3482 40.5474 14.6189 40.541 14.8953C40.541 15.1803 40.4671 15.3519 40.4433 15.4021C40.2058 15.9405 39.699 16.0461 39.414 16.1041C39.736 16.1569 40.1609 16.2229 40.4512 16.5528C40.636 16.7534 40.7416 17.0437 40.7416 17.3446C40.7416 17.7537 40.5251 18.3291 39.8706 18.6194C39.4747 18.791 39.0497 18.8147 38.4453 18.8147H36.2204V13.5439ZM37.474 14.5284V15.6264H38.4664C38.7647 15.6185 39.2503 15.6053 39.2503 15.0589C39.2503 14.5522 38.8096 14.5311 38.5562 14.5311H37.474V14.5284ZM37.474 16.5818V17.8593H38.3925C38.8307 17.8514 39.4061 17.8355 39.4061 17.2311C39.4061 16.5977 38.8835 16.5898 38.6143 16.5818H37.474ZM40.7125 13.5439H42.2275L43.3624 15.3519C43.4284 15.2015 43.4416 15.1724 43.5789 14.956L44.4815 13.5439H45.9807L43.988 16.3205V18.8147H42.6894V16.3601L40.7099 13.5439H40.7125Z" fill="#3A3A3A"/>
</g>
</g>
</g>
</g>
</g>
</g>
<defs>
<clipPath id="clip0_80_2">
<rect width="46.1887" height="26.6575" fill="white"/>
</clipPath>
</defs>
</svg>
